<svg version="1.2" xmlns="http://www.w3.org/2000/svg" viewBox="0 0 515 515" width="50" height="50"><defs><linearGradient id="P" gradientUnits="userSpaceOnUse"/><linearGradient id="g1" x2="1" href="#P" gradientTransform="matrix(0,-406.194,404.294,0,257.5,460.597)"><stop stop-color="#20b038"/><stop offset="1" stop-color="#60d66a"/></linearGradient><linearGradient id="g2" x2="1" href="#P" gradientTransform="matrix(0,-420.76,418.96,0,257.5,467.88)"><stop stop-color="#f9f9f9"/><stop offset="1" stop-color="#fff"/></linearGradient></defs><style>.a{fill:#fff}.b{fill:url(#g1)}.c{fill:url(#g2)}</style><path fill-rule="evenodd" class="a" d="m48.1 467.9l29.6-108c-18.2-31.6-27.9-67.5-27.8-104.2 0-115 93.6-208.5 208.6-208.5 55.8 0 108.2 21.7 147.5 61.1 39.4 39.4 61.1 91.8 61 147.5 0 115-93.6 208.5-208.6 208.5h-0.1c-34.9 0-69.2-8.8-99.7-25.4zm115.6-66.8l6.3 3.8c26.6 15.8 57.1 24.1 88.2 24.2h0.1c95.5 0 173.3-77.7 173.3-173.3 0-46.3-18-89.8-50.7-122.6-32.7-32.8-76.3-50.8-122.6-50.8-95.6 0-173.4 77.7-173.4 173.3 0 32.7 9.1 64.6 26.5 92.2l4.1 6.6-17.5 63.9z"/><path class="b" d="m55.3 460.6l28.6-104.3c-17.6-30.5-26.9-65.2-26.9-100.6 0-111 90.4-201.3 201.3-201.3 53.9 0 104.4 21 142.4 59 38 38 58.9 88.6 58.9 142.4 0 111-90.4 201.3-201.3 201.3h-0.1c-33.7 0-66.8-8.5-96.2-24.5z"/><path fill-rule="evenodd" class="c" d="m48.1 467.9l29.6-108c-18.2-31.6-27.9-67.5-27.8-104.2 0-115 93.6-208.5 208.6-208.5 55.8 0 108.2 21.7 147.5 61.1 39.4 39.4 61.1 91.8 61 147.5 0 115-93.6 208.5-208.6 208.5h-0.1c-34.9 0-69.2-8.8-99.7-25.4zm115.6-66.8l6.3 3.8c26.6 15.8 57.1 24.1 88.2 24.2h0.1c95.5 0 173.3-77.7 173.3-173.3 0-46.3-18-89.8-50.7-122.6-32.7-32.8-76.3-50.8-122.6-50.8-95.6 0-173.4 77.7-173.4 173.3 0 32.7 9.1 64.6 26.5 92.2l4.1 6.6-17.5 63.9z"/><path fill-rule="evenodd" class="a" d="m205.4 168.4c-3.9-8.7-8-8.9-11.7-9-3-0.1-6.5-0.1-10-0.1-3.5 0-9.1 1.3-13.9 6.5-4.8 5.2-18.2 17.8-18.2 43.5 0 25.6 18.7 50.4 21.3 53.9 2.6 3.5 36.1 57.8 89 78.7 44 17.4 53 13.9 62.5 13 9.5-0.9 30.8-12.6 35.2-24.8 4.3-12.2 4.3-22.6 3-24.8-1.3-2.2-4.8-3.5-10-6.1-5.2-2.6-30.8-15.2-35.6-17-4.8-1.7-8.3-2.6-11.7 2.6-3.5 5.2-13.5 16.9-16.5 20.4-3 3.5-6.1 3.9-11.3 1.3-5.2-2.6-22-8.1-41.9-25.9-15.5-13.8-26-30.9-29-36.1-3-5.2-0.3-8 2.3-10.6 2.3-2.3 5.2-6.1 7.8-9.1 2.6-3 3.5-5.2 5.2-8.7 1.7-3.5 0.9-6.5-0.4-9.1-1.3-2.5-11.4-28.3-16.1-38.6z"/></svg>